<?xml version="1.0" encoding="UTF-8"?> <svg xmlns="http://www.w3.org/2000/svg" width="188" height="54" viewBox="0 0 188 54" fill="none"><g clip-path="url(#clip0_271_3134)"><path fill-rule="evenodd" clip-rule="evenodd" d="M78.6412 17.43C78.3804 16.8725 78.0279 16.3996 77.5839 15.9903C77.1469 15.595 76.6464 15.2563 76.0896 14.974C75.5186 14.6917 74.9477 14.4447 74.3627 14.2118C73.7776 13.993 73.2067 13.7671 72.6499 13.5484C72.093 13.3437 71.5926 13.0896 71.1556 12.8285C70.7185 12.5603 70.352 12.2568 70.0842 11.904C69.8093 11.5511 69.6754 11.1276 69.6754 10.5983C69.6754 10.2737 69.7317 9.96313 69.8798 9.67377C70.0278 9.37736 70.2322 9.13034 70.5212 8.92567C70.7961 8.72101 71.1626 8.55868 71.6067 8.4387C72.0437 8.31873 72.5441 8.26227 73.1151 8.26227C73.7565 8.26227 74.3345 8.31873 74.8279 8.41047C75.3283 8.51634 75.7653 8.61514 76.1319 8.73512C76.4984 8.8551 76.8085 8.96802 77.0411 9.05977C77.2737 9.16563 77.45 9.20797 77.5839 9.20797C77.6544 9.20797 77.7319 9.19386 77.8024 9.1374C77.8588 9.09505 77.9222 9.00331 77.9786 8.89039C78.0209 8.77041 78.0491 8.62926 78.0843 8.44576C78.0984 8.26932 78.1125 8.05054 78.1125 7.79647C78.1125 7.56357 78.0984 7.37302 78.0843 7.21069C78.0561 7.06249 78.042 6.92839 78.0138 6.81547C77.9856 6.70961 77.9575 6.6108 77.9081 6.51906C77.8517 6.43437 77.746 6.35673 77.598 6.28616C77.45 6.21558 77.2315 6.12383 76.9425 6.02503C76.6464 5.94034 76.301 5.83448 75.8852 5.74273C75.4764 5.65098 75.0041 5.59452 74.4895 5.53806C73.9609 5.4816 73.4534 5.45337 72.953 5.45337C71.7829 5.45337 70.7538 5.60158 69.8727 5.89799C68.9916 6.19441 68.2586 6.58963 67.6736 7.0766C67.0885 7.56357 66.6445 8.12112 66.3555 8.77041C66.0594 9.4197 65.9185 10.0902 65.9185 10.7959C65.9185 11.5934 66.0524 12.278 66.3132 12.8567C66.574 13.4284 66.9476 13.9295 67.3846 14.3388C67.8216 14.7481 68.3361 15.101 68.893 15.3833C69.4498 15.6797 70.0348 15.9267 70.6269 16.1455C71.2119 16.3784 71.7688 16.5901 72.3256 16.7948C72.8825 16.9995 73.3829 17.2536 73.8199 17.5147C74.2569 17.7758 74.6235 18.0863 74.8913 18.4251C75.1521 18.778 75.3001 19.2014 75.3001 19.7025C75.3001 20.1754 75.2156 20.5706 75.0393 20.9094C74.8631 21.2481 74.6023 21.5234 74.2781 21.7351C73.9398 21.9539 73.545 22.1162 73.108 22.2362C72.6569 22.3561 72.1565 22.3985 71.6137 22.3985C70.8666 22.3985 70.204 22.3067 69.6472 22.1021C69.0762 21.9115 68.5758 21.6927 68.167 21.4528C67.7581 21.2199 67.4057 21.0082 67.1308 20.8035C66.8348 20.6129 66.6304 20.5071 66.4823 20.5071C66.3766 20.5071 66.292 20.5353 66.2356 20.5777C66.1652 20.6341 66.1017 20.7117 66.0594 20.8247C66.0171 20.9446 65.9889 21.0929 65.9537 21.2693C65.9255 21.4457 65.9255 21.6645 65.9255 21.9327C65.9255 22.3703 65.9537 22.709 66.0312 22.9631C66.0876 23.2101 66.2075 23.4218 66.3555 23.563C66.5035 23.7112 66.7502 23.8876 67.0885 24.0641C67.4128 24.2546 67.8216 24.4311 68.2938 24.6075C68.759 24.7839 69.3018 24.9321 69.908 25.0451C70.493 25.165 71.1203 25.2074 71.7829 25.2074C72.8543 25.2074 73.834 25.0874 74.7292 24.8263C75.6244 24.5793 76.3997 24.2123 77.0482 23.7112C77.6896 23.2242 78.1901 22.6243 78.5425 21.9045C78.8949 21.1846 79.0711 20.3589 79.0711 19.4343C79.0711 18.6721 78.9231 18.0087 78.6623 17.4512L78.6412 17.43Z" fill="#505050"></path><path fill-rule="evenodd" clip-rule="evenodd" d="M95.882 18.8555C95.3816 19.5189 94.9023 20.0765 94.4582 20.5211C94.0212 20.9587 93.5912 21.3327 93.1824 21.608C92.7736 21.8903 92.3789 22.0808 91.9983 22.1937C91.6035 22.3137 91.1947 22.3702 90.7789 22.3702C89.9471 22.3702 89.2564 22.1796 88.7136 21.7703C88.1568 21.3609 87.7198 20.8316 87.3955 20.1541C87.0572 19.4907 86.8246 18.7285 86.6907 17.8604C86.5568 16.9923 86.5004 16.096 86.5004 15.1715C86.5004 14.3175 86.5709 13.4777 86.733 12.659C86.8951 11.8333 87.1418 11.0993 87.4942 10.4571C87.8466 9.80777 88.2978 9.27846 88.8616 8.86912C89.4185 8.4739 90.1092 8.26923 90.9128 8.26923C91.7798 8.26923 92.6115 8.56565 93.408 9.15142C94.1974 9.7372 95.0362 10.577 95.8891 11.678V18.8696L95.882 18.8555ZM99.6319 6.07434C99.6319 5.95436 99.6037 5.85556 99.5473 5.76381C99.4909 5.69323 99.3993 5.62972 99.2865 5.57326C99.1526 5.5168 98.9764 5.48857 98.772 5.45328C98.5676 5.43916 98.3068 5.42505 98.0107 5.42505C97.6865 5.42505 97.4116 5.43916 97.2072 5.45328C97.0028 5.48151 96.8265 5.50974 96.6926 5.57326C96.5446 5.62972 96.46 5.70735 96.3966 5.79204C96.3402 5.87673 96.312 5.98259 96.312 6.10257V8.50213C95.7552 7.9587 95.2406 7.48585 94.7754 7.09063C94.3102 6.70952 93.8379 6.38487 93.3798 6.13786C92.9075 5.90496 92.4564 5.72852 91.9912 5.60854C91.519 5.48857 91.0256 5.43211 90.4969 5.43211C89.2352 5.43211 88.1215 5.665 87.1559 6.13786C86.1902 6.61071 85.3796 7.28824 84.7382 8.17043C84.0827 9.05262 83.5823 10.1254 83.258 11.3604C82.9197 12.6096 82.7576 14.007 82.7576 15.5526C82.7576 16.8582 82.8915 18.1004 83.1523 19.2719C83.4131 20.4505 83.829 21.4809 84.414 22.3419C84.9849 23.2241 85.7321 23.9158 86.6413 24.431C87.5506 24.9462 88.6643 25.1932 89.9542 25.1932C90.4687 25.1932 90.9621 25.1508 91.4485 25.045C91.9278 24.9532 92.4141 24.7838 92.8864 24.5439C93.3516 24.311 93.8379 24.0146 94.3384 23.6335C94.8388 23.2524 95.3463 22.7936 95.8961 22.2361V32.046C95.8961 32.1519 95.9102 32.2507 95.9666 32.3425C96.023 32.4272 96.1287 32.4907 96.2768 32.5612C96.4248 32.6036 96.6151 32.653 96.8477 32.6812C97.0803 32.7095 97.3904 32.7236 97.7711 32.7236C98.1235 32.7236 98.4266 32.7095 98.6662 32.6812C98.8988 32.653 99.0891 32.6106 99.2372 32.5612C99.3711 32.4907 99.4698 32.4272 99.5473 32.3566C99.6037 32.2507 99.653 32.166 99.653 32.0602V6.07434H99.6319Z" fill="#505050"></path><path fill-rule="evenodd" clip-rule="evenodd" d="M122.201 6.06025C122.201 5.95439 122.159 5.8697 122.096 5.79912C122.025 5.72855 121.919 5.65091 121.786 5.59445C121.638 5.53799 121.447 5.48859 121.215 5.46036C120.982 5.44624 120.672 5.43213 120.319 5.43213C119.939 5.43213 119.629 5.44624 119.396 5.46036C119.163 5.48859 118.973 5.53093 118.825 5.59445C118.677 5.65091 118.578 5.72855 118.515 5.79912C118.459 5.8697 118.445 5.96144 118.445 6.06025V18.9896C117.563 20.1047 116.725 20.9446 115.949 21.5162C115.174 22.0879 114.392 22.3702 113.602 22.3702C112.989 22.3702 112.46 22.2502 112.002 22.0032C111.551 21.7562 111.17 21.4033 110.874 20.9446C110.578 20.4858 110.36 19.9424 110.212 19.3002C110.064 18.6509 109.993 17.7969 109.993 16.7242V6.06025C109.993 5.95439 109.965 5.8697 109.909 5.79912C109.852 5.72855 109.747 5.65091 109.599 5.59445C109.451 5.53799 109.246 5.48859 109.014 5.46036C108.781 5.44624 108.471 5.43213 108.118 5.43213C107.766 5.43213 107.442 5.44624 107.209 5.46036C106.976 5.48859 106.772 5.53093 106.624 5.59445C106.476 5.65091 106.377 5.72855 106.314 5.79912C106.258 5.8697 106.243 5.96144 106.243 6.06025V17.1194C106.243 18.4462 106.349 19.5754 106.568 20.5C106.786 21.4245 107.153 22.2361 107.667 22.9277C108.168 23.6335 108.837 24.1769 109.662 24.5933C110.48 25.0027 111.509 25.1932 112.714 25.1932C113.743 25.1932 114.751 24.9603 115.766 24.4592C116.76 23.9723 117.789 23.1959 118.818 22.1091V24.5651C118.818 24.6851 118.832 24.7698 118.874 24.8474C118.917 24.918 119.008 24.9815 119.135 25.0379C119.255 25.0944 119.431 25.1226 119.65 25.1579C119.868 25.1861 120.164 25.2003 120.517 25.2003C120.827 25.2003 121.088 25.1861 121.306 25.1579C121.525 25.1297 121.701 25.1015 121.835 25.0379C121.969 24.9815 122.053 24.918 122.11 24.8474C122.166 24.7768 122.194 24.6851 122.194 24.5651V6.06025H122.201Z" fill="#505050"></path><path fill-rule="evenodd" clip-rule="evenodd" d="M138.921 20.0483C138.159 20.8387 137.44 21.4174 136.764 21.7985C136.073 22.1796 135.326 22.3702 134.536 22.3702C133.536 22.3702 132.774 22.1373 132.232 21.6503C131.675 21.1775 131.407 20.5352 131.407 19.7095C131.407 19.2367 131.491 18.8273 131.689 18.4603C131.879 18.0933 132.175 17.7828 132.584 17.5217C132.993 17.2605 133.507 17.0629 134.121 16.9359C134.734 16.8018 135.453 16.7312 136.306 16.7312H138.914V20.0553L138.921 20.0483ZM142.671 12.2991C142.671 11.1699 142.537 10.1818 142.29 9.32788C142.029 8.47392 141.613 7.76817 141.042 7.19651C140.471 6.62485 139.724 6.18023 138.815 5.89087C137.906 5.59445 136.792 5.43213 135.488 5.43213C134.783 5.43213 134.078 5.5027 133.395 5.65091C132.704 5.79912 132.077 5.97556 131.484 6.19434C130.899 6.41313 130.385 6.65308 129.948 6.91421C129.511 7.17534 129.187 7.40118 129.01 7.57762C128.834 7.75406 128.714 7.93049 128.672 8.10693C128.616 8.29749 128.602 8.56567 128.602 8.88326C128.602 9.08793 128.602 9.26437 128.63 9.42669C128.658 9.58901 128.7 9.72311 128.764 9.82191C128.82 9.92777 128.883 9.99835 128.968 10.0548C129.039 10.1113 129.13 10.1254 129.25 10.1254C129.398 10.1254 129.631 10.0336 129.955 9.82897C130.279 9.63842 130.674 9.41963 131.139 9.17968C131.611 8.94678 132.154 8.74211 132.781 8.53038C133.409 8.33983 134.128 8.23397 134.924 8.23397C135.657 8.23397 136.27 8.33983 136.785 8.51627C137.285 8.69271 137.694 8.95384 138.018 9.30671C138.343 9.65959 138.561 10.1183 138.709 10.6476C138.857 11.177 138.928 11.791 138.928 12.4826V13.88H136.496C135.121 13.88 133.888 14.0141 132.803 14.247C131.703 14.494 130.78 14.868 130.018 15.348C129.257 15.8349 128.686 16.4348 128.27 17.1688C127.861 17.9028 127.671 18.7709 127.671 19.773C127.671 20.627 127.819 21.3892 128.108 22.0667C128.404 22.7442 128.813 23.3018 129.342 23.7605C129.87 24.2193 130.512 24.5721 131.28 24.805C132.041 25.0521 132.88 25.172 133.818 25.172C134.875 25.172 135.89 24.9815 136.841 24.5863C137.793 24.2052 138.66 23.57 139.435 22.7019V24.558C139.435 24.7345 139.478 24.8544 139.597 24.9391C139.703 25.0309 139.872 25.0873 140.112 25.1156C140.345 25.1579 140.655 25.172 141.063 25.172C141.472 25.172 141.782 25.1579 142.001 25.1156C142.205 25.0873 142.382 25.0309 142.501 24.9391C142.621 24.8544 142.692 24.7345 142.692 24.5721V12.292L142.671 12.2991Z" fill="#505050"></path><path fill-rule="evenodd" clip-rule="evenodd" d="M160.602 6.646C160.602 6.48368 160.588 6.3637 160.56 6.27901C160.532 6.19432 160.518 6.1308 160.489 6.07434C160.461 6.01788 160.419 5.95436 160.327 5.8979C160.243 5.84144 160.109 5.77793 159.904 5.72147C159.7 5.665 159.467 5.6156 159.214 5.55914C158.967 5.5168 158.727 5.48857 158.495 5.45328C158.262 5.43916 158.058 5.42505 157.881 5.42505C157.473 5.42505 157.078 5.48151 156.676 5.57326C156.281 5.665 155.887 5.83439 155.478 6.07434C155.069 6.32136 154.639 6.66012 154.202 7.09063C153.751 7.53525 153.265 8.07868 152.75 8.74915V6.06023C152.75 5.95436 152.722 5.86967 152.658 5.7991C152.602 5.72852 152.51 5.65089 152.398 5.59443C152.278 5.53797 152.102 5.48857 151.883 5.46034C151.665 5.44622 151.383 5.43211 151.065 5.43211C150.713 5.43211 150.438 5.44622 150.234 5.46034C150.015 5.48857 149.839 5.53091 149.705 5.59443C149.557 5.65089 149.472 5.72852 149.43 5.7991C149.388 5.86967 149.374 5.96142 149.374 6.06023V24.5651C149.374 24.685 149.388 24.7697 149.444 24.8474C149.501 24.9179 149.592 24.9815 149.74 25.0379C149.888 25.0944 150.079 25.1226 150.325 25.1579C150.558 25.1861 150.868 25.2002 151.235 25.2002C151.601 25.2002 151.925 25.1861 152.172 25.1579C152.405 25.1297 152.595 25.1014 152.743 25.0379C152.877 24.9815 152.976 24.9179 153.032 24.8474C153.088 24.7768 153.124 24.685 153.124 24.5651V12.3979C153.61 11.6357 154.047 10.9723 154.456 10.443C154.851 9.91364 155.231 9.49019 155.598 9.16554C155.964 8.84089 156.317 8.62211 156.655 8.4739C156.979 8.32569 157.325 8.25512 157.677 8.25512C157.952 8.25512 158.22 8.28335 158.466 8.33981C158.713 8.39627 158.953 8.45979 159.157 8.51625C159.362 8.57271 159.538 8.65034 159.7 8.7068C159.848 8.76326 159.996 8.79149 160.109 8.79149C160.215 8.79149 160.299 8.76326 160.355 8.7068C160.412 8.65034 160.475 8.54448 160.518 8.4245C160.546 8.30452 160.574 8.16337 160.588 7.97987C160.602 7.80344 160.616 7.57054 160.616 7.30235C160.616 7.03417 160.602 6.81538 160.602 6.63894V6.646Z" fill="#505050"></path><path fill-rule="evenodd" clip-rule="evenodd" d="M166.685 12.9555C166.713 12.3344 166.833 11.7486 167.051 11.177C167.256 10.6053 167.566 10.1042 167.975 9.68076C168.37 9.25731 168.87 8.91855 169.455 8.65036C170.04 8.38923 170.717 8.25514 171.506 8.25514C173.029 8.25514 174.178 8.67859 174.953 9.50432C175.728 10.3442 176.095 11.4875 176.067 12.9625H166.685V12.9555ZM179.823 13.7812C179.823 12.6308 179.661 11.5581 179.358 10.5488C179.048 9.53255 178.569 8.65036 177.92 7.90226C177.272 7.15417 176.44 6.54722 175.425 6.10965C174.41 5.67208 173.184 5.43213 171.746 5.43213C170.4 5.43213 169.18 5.66503 168.095 6.12377C167.009 6.59662 166.072 7.25297 165.31 8.10693C164.535 8.96089 163.943 10.0054 163.534 11.2405C163.125 12.4755 162.935 13.8588 162.935 15.4044C162.935 17.0347 163.125 18.4603 163.52 19.6813C163.901 20.9163 164.486 21.9326 165.247 22.7442C166.008 23.57 166.96 24.1699 168.095 24.5792C169.208 24.9885 170.526 25.2003 172.021 25.2003C172.874 25.2003 173.691 25.1156 174.452 24.9321C175.214 24.7556 175.876 24.5651 176.461 24.3463C177.032 24.1275 177.504 23.9087 177.871 23.6688C178.223 23.4359 178.442 23.2877 178.512 23.1959C178.583 23.1254 178.646 23.0477 178.703 22.963C178.745 22.8783 178.773 22.7866 178.808 22.6807C178.823 22.5749 178.837 22.4619 178.851 22.3137C178.865 22.1796 178.879 22.0173 178.879 21.8409C178.879 21.5939 178.865 21.368 178.851 21.1916C178.823 21.0152 178.794 20.8811 178.766 20.7823C178.724 20.6976 178.66 20.6199 178.59 20.5635C178.519 20.5211 178.442 20.4929 178.357 20.4929C178.181 20.4929 177.949 20.5988 177.638 20.7893C177.328 20.994 176.934 21.1986 176.454 21.4386C175.968 21.6715 175.397 21.8973 174.741 22.0879C174.079 22.2926 173.332 22.3843 172.5 22.3843C171.415 22.3843 170.505 22.2361 169.772 21.9256C169.039 21.615 168.44 21.1775 167.982 20.5846C167.517 20.013 167.192 19.3213 166.988 18.5097C166.784 17.7122 166.692 16.8018 166.692 15.7926H178.541C178.879 15.7926 179.175 15.6867 179.436 15.4679C179.697 15.2633 179.831 14.8963 179.831 14.3811V13.7953L179.823 13.7812Z" fill="#505050"></path><path fill-rule="evenodd" clip-rule="evenodd" d="M15.951 6.06049C15.951 5.95463 15.9087 5.86994 15.8452 5.79936C15.7747 5.72879 15.669 5.65116 15.5351 5.5947C15.3871 5.53824 15.1968 5.48883 14.9642 5.4606C14.7316 5.44649 14.4214 5.43237 14.069 5.43237C13.6884 5.43237 13.3782 5.44649 13.1456 5.4606C12.913 5.48883 12.7227 5.53118 12.5747 5.5947C12.4267 5.65116 12.328 5.72879 12.2645 5.79936C12.2082 5.86994 12.1941 5.96169 12.1941 6.06049V18.9899C11.313 20.105 10.4813 20.9448 9.69886 21.5165C8.92352 22.0881 8.14817 22.3704 7.35168 22.3704C6.73845 22.3704 6.20981 22.2505 5.75165 22.0034C5.30054 21.7564 4.91287 21.4036 4.62388 20.9448C4.32784 20.4861 4.10933 19.9426 3.96836 19.3004C3.82034 18.6511 3.74985 17.7972 3.74985 16.7244V6.06049C3.74985 5.95463 3.72166 5.86994 3.66527 5.79936C3.60888 5.72879 3.50315 5.65116 3.35513 5.5947C3.20711 5.53824 3.0027 5.48883 2.7701 5.4606C2.53749 5.44649 2.22736 5.43237 1.87493 5.43237C1.5225 5.43237 1.19826 5.44649 0.965657 5.4606C0.733054 5.48883 0.528644 5.53118 0.380624 5.5947C0.232604 5.65116 0.133923 5.72879 0.0704859 5.79936C0.0140972 5.86994 0 5.96169 0 6.06049V17.1196C0 18.4465 0.105729 19.5757 0.324235 20.5002C0.542742 21.4247 0.909268 22.2363 1.42382 22.928C1.92427 23.6337 2.59388 24.1772 3.41857 24.5936C4.24325 25.0029 5.2653 25.1935 6.47061 25.1935C7.49265 25.1935 8.50765 24.9606 9.52265 24.4595C10.5165 23.9725 11.5456 23.1962 12.5747 22.1093V24.5653C12.5747 24.6853 12.5888 24.77 12.6311 24.8476C12.6734 24.9182 12.765 24.9817 12.8919 25.0382C13.0117 25.0946 13.1879 25.1229 13.4064 25.1582C13.6249 25.1864 13.921 25.2005 14.2734 25.2005C14.5835 25.2005 14.8443 25.1864 15.0628 25.1582C15.2813 25.1299 15.4576 25.1017 15.5915 25.0382C15.7254 24.9817 15.81 24.9182 15.8664 24.8476C15.9228 24.7771 15.951 24.6853 15.951 24.5653V6.06049Z" fill="#505050"></path><path fill-rule="evenodd" clip-rule="evenodd" d="M38.0484 13.4424C38.0484 12.1509 37.9285 11.0428 37.71 10.1183C37.4915 9.19377 37.125 8.38215 36.6246 7.69052C36.11 7.01299 35.4333 6.45545 34.6157 6.04611C33.7981 5.63677 32.7831 5.42505 31.5778 5.42505C30.5487 5.42505 29.5266 5.67206 28.5116 6.17315C27.5037 6.67423 26.4887 7.45056 25.4737 8.50919V6.05317C25.4737 5.94731 25.4455 5.86262 25.3891 5.79204C25.3327 5.72146 25.2411 5.64383 25.1283 5.58737C25.0085 5.53091 24.8323 5.48151 24.6138 5.45328C24.3953 5.43916 24.1133 5.42505 23.7891 5.42505C23.4366 5.42505 23.1617 5.43916 22.9573 5.45328C22.7388 5.48151 22.5626 5.52385 22.4287 5.58737C22.2807 5.64383 22.1961 5.72146 22.1538 5.79204C22.1115 5.86262 22.0974 5.95436 22.0974 6.05317V24.558C22.0974 24.678 22.1115 24.7627 22.1679 24.8403C22.2243 24.9109 22.3159 24.9744 22.4569 25.0309C22.6049 25.0873 22.7952 25.1156 23.0419 25.1508C23.2745 25.1791 23.5847 25.1932 23.9512 25.1932C24.3177 25.1932 24.642 25.1791 24.8887 25.1508C25.1213 25.1226 25.3116 25.0944 25.4596 25.0309C25.5935 24.9744 25.6922 24.9109 25.7556 24.8403C25.812 24.7697 25.8402 24.678 25.8402 24.558V11.7627C26.6931 10.6123 27.5107 9.75131 28.3072 9.14437C29.0967 8.55859 29.8791 8.24806 30.6685 8.24806C31.2676 8.24806 31.7963 8.38215 32.2685 8.61505C32.7196 8.86206 33.1003 9.21494 33.3963 9.67368C33.6923 10.1465 33.9108 10.69 34.0589 11.3181C34.2069 11.9674 34.2915 12.8002 34.2915 13.8306V24.5509C34.2915 24.6709 34.3197 24.7556 34.3831 24.8332C34.4395 24.9038 34.5311 24.9673 34.6791 25.0238C34.8131 25.0803 35.0034 25.1085 35.2501 25.1438C35.4827 25.172 35.8069 25.1861 36.1875 25.1861C36.54 25.1861 36.8431 25.172 37.0968 25.1438C37.3294 25.1156 37.5197 25.0873 37.6677 25.0238C37.8017 24.9673 37.9004 24.9038 37.9638 24.8332C38.0202 24.7627 38.0554 24.6709 38.0554 24.5509V13.4283L38.0484 13.4424Z" fill="#505050"></path><path fill-rule="evenodd" clip-rule="evenodd" d="M58.024 18.1921C57.8055 19.0461 57.4671 19.7942 56.9949 20.4152C56.5297 21.0292 55.9376 21.5162 55.2186 21.855C54.4997 22.2079 53.6538 22.3702 52.6811 22.3702C51.5957 22.3702 50.7005 22.1937 49.9815 21.8126C49.2626 21.4315 48.6916 20.9304 48.2617 20.2811C47.8247 19.6319 47.5145 18.8838 47.3383 18.0298C47.1621 17.1758 47.0775 16.2513 47.0775 15.2632C47.0775 14.2752 47.1832 13.3083 47.4158 12.4543C47.6344 11.6004 47.9727 10.8523 48.4379 10.2171C48.889 9.59605 49.4811 9.11614 50.2 8.76326C50.9049 8.4245 51.7578 8.24806 52.7516 8.24806C53.823 8.24806 54.7182 8.43861 55.4371 8.81972C56.1561 9.20083 56.727 9.70191 57.15 10.3512C57.5729 11.0005 57.883 11.7627 58.0592 12.6167C58.2354 13.4706 58.3412 14.3811 58.3412 15.355C58.3412 16.3854 58.2213 17.3382 58.0169 18.1921H58.024ZM61.5271 11.0711C61.1465 9.86423 60.5615 8.84795 59.8002 8.01516C59.039 7.17532 58.0874 6.53308 56.9385 6.08846C55.7966 5.65089 54.4433 5.42505 52.9067 5.42505C51.3701 5.42505 49.904 5.67206 48.7128 6.17315C47.5145 6.67423 46.5136 7.36587 45.7242 8.24806C44.9207 9.14437 44.3145 10.203 43.9198 11.4381C43.525 12.6731 43.3347 14.0141 43.3347 15.482C43.3347 16.95 43.5109 18.3474 43.8916 19.5542C44.2722 20.7611 44.8431 21.7773 45.6044 22.6101C46.3656 23.45 47.3242 24.0781 48.4661 24.5227C49.608 24.9673 50.9613 25.1861 52.512 25.1861C54.0627 25.1861 55.4865 24.9391 56.6918 24.438C57.8901 23.9369 58.891 23.2453 59.6945 22.349C60.4839 21.4668 61.0831 20.4082 61.4989 19.1731C61.8937 17.938 62.0981 16.583 62.0981 15.115C62.0981 13.6471 61.9077 12.2779 61.5271 11.0711Z" fill="#505050"></path><path d="M6.56235 30.8462H2.8125V34.6149H6.56235V30.8462Z" fill="#505050"></path><path d="M15.0135 30.8462H11.2637V34.6149H15.0135V30.8462Z" fill="#505050"></path><path d="M23.6622 37.438H19.9124V41.1997H23.6622V37.438Z" fill="#505050"></path><path d="M32.3179 30.8462H28.561V34.6149H32.3179V30.8462Z" fill="#505050"></path><path d="M48.7974 30.8462H45.0405V34.6149H48.7974V30.8462Z" fill="#505050"></path><path d="M57.4461 37.438H53.6892V41.1997H57.4461V37.438Z" fill="#505050"></path><path d="M66.0877 43.084H62.3379V46.8456H66.0877V43.084Z" fill="#505050"></path><path d="M74.8561 37.438H71.1062V41.1997H74.8561V37.438Z" fill="#505050"></path><path d="M83.5118 37.438H79.762V41.1997H83.5118V37.438Z" fill="#505050"></path><path d="M92.1605 43.084H88.4106V46.8456H92.1605V43.084Z" fill="#505050"></path><path d="M101.014 49.6758H97.2637V53.4374H101.014V49.6758Z" fill="#505050"></path><path d="M6.56235 37.438H2.8125V41.1997H6.56235V37.438Z" fill="#505050"></path><path d="M15.0135 37.438H11.2637V41.1997H15.0135V37.438Z" fill="#505050"></path><path d="M23.6622 43.084H19.9124V46.8456H23.6622V43.084Z" fill="#505050"></path><path d="M32.3179 37.438H28.561V41.1997H32.3179V37.438Z" fill="#505050"></path><path d="M48.7974 37.438H45.0405V41.1997H48.7974V37.438Z" fill="#505050"></path><path d="M57.4461 43.084H53.6892V46.8456H57.4461V43.084Z" fill="#505050"></path><path d="M66.0877 49.6758H62.3379V53.4374H66.0877V49.6758Z" fill="#505050"></path><path d="M74.8561 43.084H71.1062V46.8456H74.8561V43.084Z" fill="#505050"></path><path d="M83.5118 43.084H79.762V46.8456H83.5118V43.084Z" fill="#505050"></path><path d="M92.1605 49.6758H88.4106V53.4374H92.1605V49.6758Z" fill="#505050"></path><path d="M184.835 0.5625C185.378 0.5625 185.9 0.696593 186.393 0.971837C186.886 1.24708 187.281 1.63524 187.57 2.14339C187.859 2.65153 188 3.18084 188 3.73839C188 4.29593 187.859 4.81819 187.584 5.31927C187.309 5.82036 186.915 6.20852 186.414 6.49082C185.914 6.77312 185.392 6.90722 184.835 6.90722C184.278 6.90722 183.757 6.76607 183.256 6.49082C182.756 6.21558 182.368 5.82036 182.086 5.31927C181.804 4.81819 181.67 4.29593 181.67 3.73839C181.67 3.18084 181.811 2.65153 182.1 2.14339C182.389 1.63524 182.777 1.24708 183.277 0.971837C183.778 0.696593 184.3 0.5625 184.835 0.5625ZM184.835 1.18356C184.398 1.18356 183.982 1.28943 183.581 1.50821C183.179 1.72699 182.869 2.03752 182.636 2.44686C182.403 2.8562 182.291 3.27965 182.291 3.73133C182.291 4.18301 182.403 4.59941 182.629 5.00168C182.855 5.40396 183.165 5.72155 183.566 5.94739C183.968 6.17323 184.391 6.28615 184.828 6.28615C185.265 6.28615 185.695 6.17323 186.097 5.94739C186.499 5.72155 186.809 5.40396 187.034 5.00168C187.26 4.59941 187.373 4.17595 187.373 3.73133C187.373 3.28671 187.26 2.8562 187.027 2.44686C186.795 2.03752 186.485 1.72699 186.083 1.50821C185.681 1.28943 185.265 1.18356 184.828 1.18356H184.835ZM183.404 5.42514V2.06575H184.088C184.73 2.06575 185.082 2.06575 185.159 2.07281C185.385 2.09398 185.561 2.13633 185.688 2.2069C185.815 2.27748 185.921 2.38334 186.005 2.53155C186.09 2.67976 186.132 2.83502 186.132 3.01146C186.132 3.25142 186.055 3.46314 185.893 3.63252C185.73 3.8019 185.512 3.91483 185.223 3.95011C185.322 3.9854 185.406 4.02775 185.455 4.07715C185.505 4.12655 185.589 4.21124 185.681 4.33828C185.709 4.37356 185.787 4.50766 185.928 4.74761L186.322 5.42514H185.477L185.195 4.88171C185.004 4.51472 184.849 4.28182 184.722 4.19007C184.596 4.09832 184.441 4.04892 184.25 4.04892H184.074V5.43219H183.39L183.404 5.42514ZM184.088 3.51255H184.363C184.758 3.51255 185.004 3.49843 185.096 3.4702C185.188 3.44197 185.265 3.38551 185.322 3.30788C185.378 3.23025 185.406 3.14556 185.406 3.04675C185.406 2.94794 185.378 2.87031 185.329 2.79974C185.279 2.72916 185.202 2.6727 185.096 2.64447C184.99 2.61624 184.751 2.59507 184.363 2.59507H184.088V3.51255Z" fill="#505050"></path></g><defs><clipPath id="clip0_271_3134"><rect width="188" height="52.875" fill="white" transform="translate(0 0.5625)"></rect></clipPath></defs></svg> 